<?xml version="1.0" encoding="UTF-8" standalone="no"?>
<svg
	xmlns="http://www.w3.org/2000/svg"
	version="1.1"
	width="24.20mm"
	height="23.96mm"
	viewBox="0 0 24.20 23.96"
>
	<style>
	:root {
		background: var(--background);
		--background: white;
		--fill: dodgerblue;

		@media (prefers-color-scheme: dark) {
			--background: #121212;
			--fill: deepskyblue;
		}
	}
	.text-paths {
		fill: var(--fill);
	}
	</style>
	<g transform="translate(-77.47,-57.38)">
		<g
			class="text-paths"
			aria-label="1110&#x0a;1000&#x0a;1001"
			style="stroke: none"
			transform="translate(29.39, 4.27)"
		>
			<path
				d="m 49.16,60.88 v -1.12 h 1.72 v -4.34 l -1.49,0.82 -0.41,-1.02 2.14,-1.13 h 1.05 v 5.67 h 1.48 v 1.12 z"
			/>
			<path
				d="m 54.98,60.88 v -1.12 h 1.72 v -4.34 l -1.49,0.82 -0.41,-1.02 2.14,-1.13 h 1.05 v 5.67 h 1.48 v 1.12 z"
			/>
			<path
				d="m 60.80,60.88 v -1.12 h 1.72 v -4.34 l -1.49,0.82 -0.41,-1.02 2.14,-1.13 h 1.05 v 5.67 h 1.48 v 1.12 z"
			/>
			<path
				d="m 71.38,57.47 q 0,0.83 -0.18,1.48 -0.18,0.65 -0.53,1.11 -0.34,0.44 -0.84,0.68 -0.50,0.23 -1.14,0.23 -0.55,0 -1.02,-0.19 -0.47,-0.19 -0.81,-0.61 -0.34,-0.42 -0.53,-1.08 -0.19,-0.65 -0.19,-1.57 0,-0.83 0.18,-1.48 0.18,-0.65 0.53,-1.10 0.34,-0.45 0.85,-0.69 0.50,-0.23 1.14,-0.23 0.55,0 1.02,0.19 0.47,0.19 0.80,0.61 0.34,0.41 0.53,1.07 0.19,0.65 0.19,1.57 z m -3.99,0.02 q 0,0.10 0,0.19 0,0.08 0.01,0.18 l 2.53,-1.82 q -0.18,-0.51 -0.48,-0.75 -0.29,-0.24 -0.69,-0.24 -0.28,0 -0.53,0.14 -0.24,0.14 -0.43,0.44 -0.18,0.30 -0.28,0.76 -0.10,0.45 -0.10,1.09 z m 2.72,0.02 q 0,-0.08 -0.00,-0.17 -0.00,-0.09 -0.00,-0.17 l -2.51,1.81 q 0.16,0.50 0.46,0.74 0.29,0.24 0.69,0.24 0.28,0 0.53,-0.14 0.25,-0.14 0.43,-0.44 0.18,-0.30 0.28,-0.76 0.10,-0.46 0.10,-1.09 z"
			/>
			<path
				d="m 49.16,68.47 v -1.12 h 1.72 v -4.34 l -1.49,0.82 -0.41,-1.02 2.14,-1.13 h 1.05 v 5.67 h 1.48 v 1.12 z"
			/>
			<path
				d="m 59.74,65.06 q 0,0.83 -0.18,1.48 -0.18,0.65 -0.53,1.11 -0.34,0.44 -0.84,0.68 -0.50,0.23 -1.14,0.23 -0.55,0 -1.02,-0.19 -0.47,-0.19 -0.81,-0.61 -0.34,-0.42 -0.53,-1.08 -0.19,-0.65 -0.19,-1.57 0,-0.83 0.18,-1.48 0.18,-0.65 0.53,-1.10 0.34,-0.45 0.85,-0.69 0.50,-0.23 1.14,-0.23 0.55,0 1.02,0.19 0.47,0.19 0.80,0.61 0.34,0.41 0.53,1.07 0.19,0.65 0.19,1.57 z m -3.99,0.02 q 0,0.10 0,0.19 0,0.08 0.01,0.18 l 2.53,-1.82 q -0.18,-0.51 -0.48,-0.75 -0.29,-0.24 -0.69,-0.24 -0.28,0 -0.53,0.14 -0.24,0.14 -0.43,0.44 -0.18,0.30 -0.28,0.76 -0.10,0.45 -0.10,1.09 z m 2.72,0.02 q 0,-0.08 -0.00,-0.17 -0.00,-0.09 -0.00,-0.17 L 55.94,66.57 q 0.16,0.50 0.46,0.74 0.29,0.24 0.69,0.24 0.28,0 0.53,-0.14 0.25,-0.14 0.43,-0.44 0.18,-0.30 0.28,-0.76 0.10,-0.46 0.10,-1.09 z"
			/>
			<path
				d="m 65.56,65.06 q 0,0.83 -0.18,1.48 -0.18,0.65 -0.53,1.11 -0.34,0.44 -0.84,0.68 -0.50,0.23 -1.14,0.23 -0.55,0 -1.02,-0.19 -0.47,-0.19 -0.81,-0.61 -0.34,-0.42 -0.53,-1.08 -0.19,-0.65 -0.19,-1.57 0,-0.83 0.18,-1.48 0.18,-0.65 0.53,-1.10 0.34,-0.45 0.85,-0.69 0.50,-0.23 1.14,-0.23 0.55,0 1.02,0.19 0.47,0.19 0.80,0.61 0.34,0.41 0.53,1.07 0.19,0.65 0.19,1.57 z m -3.99,0.02 q 0,0.10 0,0.19 0,0.08 0.01,0.18 l 2.53,-1.82 q -0.18,-0.51 -0.48,-0.75 -0.29,-0.24 -0.69,-0.24 -0.28,0 -0.53,0.14 -0.24,0.14 -0.43,0.44 -0.18,0.30 -0.28,0.76 -0.10,0.45 -0.10,1.09 z m 2.72,0.02 q 0,-0.08 -0.00,-0.17 -0.00,-0.09 -0.00,-0.17 l -2.51,1.81 q 0.16,0.50 0.46,0.74 0.29,0.24 0.69,0.24 0.28,0 0.53,-0.14 0.25,-0.14 0.43,-0.44 0.18,-0.30 0.28,-0.76 0.10,-0.46 0.10,-1.09 z"
			/>
			<path
				d="m 71.38,65.06 q 0,0.83 -0.18,1.48 -0.18,0.65 -0.53,1.11 -0.34,0.44 -0.84,0.68 -0.50,0.23 -1.14,0.23 -0.55,0 -1.02,-0.19 -0.47,-0.19 -0.81,-0.61 -0.34,-0.42 -0.53,-1.08 -0.19,-0.65 -0.19,-1.57 0,-0.83 0.18,-1.48 0.18,-0.65 0.53,-1.10 0.34,-0.45 0.85,-0.69 0.50,-0.23 1.14,-0.23 0.55,0 1.02,0.19 0.47,0.19 0.80,0.61 0.34,0.41 0.53,1.07 0.19,0.65 0.19,1.57 z m -3.99,0.02 q 0,0.10 0,0.19 0,0.08 0.01,0.18 l 2.53,-1.82 q -0.18,-0.51 -0.48,-0.75 -0.29,-0.24 -0.69,-0.24 -0.28,0 -0.53,0.14 -0.24,0.14 -0.43,0.44 -0.18,0.30 -0.28,0.76 -0.10,0.45 -0.10,1.09 z m 2.72,0.02 q 0,-0.08 -0.00,-0.17 -0.00,-0.09 -0.00,-0.17 l -2.51,1.81 q 0.16,0.50 0.46,0.74 0.29,0.24 0.69,0.24 0.28,0 0.53,-0.14 0.25,-0.14 0.43,-0.44 0.18,-0.30 0.28,-0.76 0.10,-0.46 0.10,-1.09 z"
			/>
			<path
				d="m 49.16,76.05 v -1.12 h 1.72 v -4.34 l -1.49,0.82 -0.41,-1.02 2.14,-1.13 h 1.05 v 5.67 h 1.48 v 1.12 z"
			/>
			<path
				d="m 59.74,72.65 q 0,0.83 -0.18,1.48 -0.18,0.65 -0.53,1.11 -0.34,0.44 -0.84,0.68 -0.50,0.23 -1.14,0.23 -0.55,0 -1.02,-0.19 -0.47,-0.19 -0.81,-0.61 -0.34,-0.42 -0.53,-1.08 -0.19,-0.65 -0.19,-1.57 0,-0.83 0.18,-1.48 0.18,-0.65 0.53,-1.10 0.34,-0.45 0.85,-0.69 0.50,-0.23 1.14,-0.23 0.55,0 1.02,0.19 0.47,0.19 0.80,0.61 0.34,0.41 0.53,1.07 0.19,0.65 0.19,1.57 z m -3.99,0.02 q 0,0.10 0,0.19 0,0.08 0.01,0.18 L 58.28,71.22 q -0.18,-0.51 -0.48,-0.75 -0.29,-0.24 -0.69,-0.24 -0.28,0 -0.53,0.14 -0.24,0.14 -0.43,0.44 -0.18,0.30 -0.28,0.76 -0.10,0.45 -0.10,1.09 z m 2.72,0.02 q 0,-0.08 -0.00,-0.17 -0.00,-0.09 -0.00,-0.17 L 55.94,74.16 q 0.16,0.50 0.46,0.74 0.29,0.24 0.69,0.24 0.28,0 0.53,-0.14 0.25,-0.14 0.43,-0.44 0.18,-0.30 0.28,-0.76 0.10,-0.46 0.10,-1.09 z"
			/>
			<path
				d="m 65.56,72.65 q 0,0.83 -0.18,1.48 -0.18,0.65 -0.53,1.11 -0.34,0.44 -0.84,0.68 -0.50,0.23 -1.14,0.23 -0.55,0 -1.02,-0.19 -0.47,-0.19 -0.81,-0.61 -0.34,-0.42 -0.53,-1.08 -0.19,-0.65 -0.19,-1.57 0,-0.83 0.18,-1.48 0.18,-0.65 0.53,-1.10 0.34,-0.45 0.85,-0.69 0.50,-0.23 1.14,-0.23 0.55,0 1.02,0.19 0.47,0.19 0.80,0.61 0.34,0.41 0.53,1.07 0.19,0.65 0.19,1.57 z m -3.99,0.02 q 0,0.10 0,0.19 0,0.08 0.01,0.18 l 2.53,-1.82 q -0.18,-0.51 -0.48,-0.75 -0.29,-0.24 -0.69,-0.24 -0.28,0 -0.53,0.14 -0.24,0.14 -0.43,0.44 -0.18,0.30 -0.28,0.76 -0.10,0.45 -0.10,1.09 z m 2.72,0.02 q 0,-0.08 -0.00,-0.17 -0.00,-0.09 -0.00,-0.17 l -2.51,1.81 q 0.16,0.50 0.46,0.74 0.29,0.24 0.69,0.24 0.28,0 0.53,-0.14 0.25,-0.14 0.43,-0.44 0.18,-0.30 0.28,-0.76 0.10,-0.46 0.10,-1.09 z"
			/>
			<path
				d="m 66.62,76.05 v -1.12 h 1.72 v -4.34 l -1.49,0.82 -0.41,-1.02 2.14,-1.13 h 1.05 v 5.67 h 1.48 v 1.12 z"
			/>
		</g>
	</g>
</svg>
